<svg xmlns="http://www.w3.org/2000/svg" viewBox="0 0 800 600" role="img" aria-labelledby="t d"><title id="t">แกงเขียวหวานไก่</title><desc id="d">ภาพประกอบชามแกงเขียวหวาน</desc><defs><linearGradient id="b" x2="1" y2="1"><stop stop-color="#dcfce7"/><stop offset="1" stop-color="#fef9c3"/></linearGradient><linearGradient id="c" y2="1"><stop stop-color="#a3b95b"/><stop offset="1" stop-color="#65843b"/></linearGradient></defs><rect width="800" height="600" fill="url(#b)"/><path d="M140 250h520l-55 220c-14 55-85 78-205 78s-191-23-205-78z" fill="#fff"/><ellipse cx="400" cy="255" rx="260" ry="105" fill="#fff"/><ellipse cx="400" cy="263" rx="224" ry="80" fill="url(#c)"/><g fill="#fef3c7"><circle cx="310" cy="250" r="38"/><circle cx="465" cy="290" r="42"/><circle cx="540" cy="230" r="30"/></g><g fill="#166534"><ellipse cx="390" cy="215" rx="40" ry="15" transform="rotate(-20 390 215)"/><ellipse cx="570" cy="310" rx="36" ry="14" transform="rotate(25 570 310)"/><circle cx="250" cy="302" r="21"/></g><g fill="#dc2626"><path d="M350 315c60-25 65 12 3 34z"/><path d="M500 190c55-18 63 17 3 35z"/></g></svg>
