<svg xmlns="http://www.w3.org/2000/svg" viewBox="0 0 800 600" role="img" aria-labelledby="t d"><title id="t">กะเพราเนื้อวากิวไข่ดาว</title><desc id="d">ภาพประกอบจานข้าวกะเพราและไข่ดาว</desc><defs><linearGradient id="b" x2="1" y2="1"><stop stop-color="#fee2e2"/><stop offset="1" stop-color="#fef3c7"/></linearGradient><filter id="s"><feDropShadow dx="0" dy="18" stdDeviation="18" flood-opacity=".18"/></filter></defs><rect width="800" height="600" fill="url(#b)"/><circle cx="400" cy="315" r="225" fill="#fff" filter="url(#s)"/><ellipse cx="320" cy="330" rx="130" ry="115" fill="#f7e7c0"/><path d="M380 220c105-70 230 10 218 112-10 89-105 130-210 75-57-30-70-145-8-187z" fill="#70402d"/><g fill="#247a3a"><ellipse cx="430" cy="250" rx="25" ry="12" transform="rotate(-30 430 250)"/><ellipse cx="515" cy="290" rx="30" ry="14" transform="rotate(25 515 290)"/><ellipse cx="455" cy="375" rx="28" ry="13"/></g><path d="M216 190c43-62 150-33 158 43 7 67-58 111-128 75-45-23-58-77-30-118z" fill="#fff"/><circle cx="294" cy="241" r="43" fill="#f4aa18"/><g fill="#dc2626"><circle cx="560" cy="360" r="11"/><circle cx="520" cy="205" r="9"/></g></svg>
