<svg xmlns="http://www.w3.org/2000/svg" viewBox="0 0 800 600" role="img" aria-labelledby="t d"><title id="t">มะนาวโซดา</title><desc id="d">ภาพประกอบแก้วมะนาวโซดา</desc><defs><linearGradient id="b" x2="1" y2="1"><stop stop-color="#cffafe"/><stop offset="1" stop-color="#ecfccb"/></linearGradient><linearGradient id="d2" y2="1"><stop stop-color="#ecfccb"/><stop offset="1" stop-color="#67e8f9"/></linearGradient></defs><rect width="800" height="600" fill="url(#b)"/><ellipse cx="400" cy="510" rx="155" ry="34" fill="#155e75" opacity=".13"/><path d="M265 125h270l-36 365c-4 40-42 61-99 61s-95-21-99-61z" fill="url(#d2)" stroke="#fff" stroke-width="15"/><g fill="#fff" opacity=".65"><rect x="330" y="315" width="55" height="62" rx="10" transform="rotate(-15 330 315)"/><rect x="415" y="350" width="58" height="60" rx="10" transform="rotate(12 415 350)"/></g><g fill="none" stroke="#fff" stroke-width="7"><circle cx="350" cy="250" r="9"/><circle cx="445" cy="295" r="12"/><circle cx="390" cy="420" r="8"/></g><circle cx="515" cy="185" r="75" fill="#84cc16"/><circle cx="515" cy="185" r="56" fill="#ecfccb"/><path d="M515 129v112M459 185h112M475 145l80 80M555 145l-80 80" stroke="#65a30d" stroke-width="7"/><path d="M455 62l-15 250" stroke="#0e7490" stroke-width="14" stroke-linecap="round"/></svg>
