<svg xmlns="http://www.w3.org/2000/svg" viewBox="0 0 800 600" role="img" aria-labelledby="t d"><title id="t">ข้าวเหนียวมะม่วง</title><desc id="d">ภาพประกอบข้าวเหนียวมูนและมะม่วงสุก</desc><defs><linearGradient id="b" x2="1" y2="1"><stop stop-color="#fef9c3"/><stop offset="1" stop-color="#ffedd5"/></linearGradient></defs><rect width="800" height="600" fill="url(#b)"/><ellipse cx="400" cy="360" rx="275" ry="175" fill="#fff"/><path d="M205 310c80-110 215-80 214 31-1 91-113 124-197 69-47-31-51-54-17-100z" fill="#fff7ed"/><g fill="#facc15" stroke="#eab308" stroke-width="7"><path d="M410 230c85-60 176-15 152 70-20 68-102 94-178 51z"/><path d="M430 330c90-42 169 12 130 90-31 64-118 72-180 15z"/><path d="M300 215c68-52 139-18 125 56-11 58-78 83-143 48z"/></g><path d="M210 325c65-30 140-20 188 12" fill="none" stroke="#fff" stroke-width="12"/><g fill="#166534"><ellipse cx="565" cy="210" rx="55" ry="20" transform="rotate(-26 565 210)"/><ellipse cx="230" cy="425" rx="38" ry="14" transform="rotate(18 230 425)"/></g><path d="M185 250c50-20 90-5 115 25" fill="none" stroke="#f8fafc" stroke-width="10"/></svg>
