<svg xmlns="http://www.w3.org/2000/svg" viewBox="0 0 800 600" role="img" aria-labelledby="t d"><title id="t">ผัดไทยกุ้งสด</title><desc id="d">ภาพประกอบผัดไทยเส้นจันท์และกุ้ง</desc><defs><linearGradient id="b" x2="1" y2="1"><stop stop-color="#fef3c7"/><stop offset="1" stop-color="#fed7aa"/></linearGradient></defs><rect width="800" height="600" fill="url(#b)"/><ellipse cx="400" cy="360" rx="270" ry="170" fill="#fff"/><g fill="none" stroke="#d97706" stroke-width="20" stroke-linecap="round"><path d="M230 330c60-90 110 100 170 0s120 90 180 0"/><path d="M245 380c75-95 120 80 185-10s110 80 160-5"/><path d="M270 275c55-55 110 60 165-10s100 55 135 15"/></g><g fill="#fb923c" stroke="#fff7ed" stroke-width="10"><path d="M280 230c70-65 145 15 105 73-30 44-100 27-121-17"/><path d="M455 400c70-60 138 22 95 75-35 43-100 20-115-20"/></g><g fill="#65a30d"><rect x="210" y="410" width="95" height="16" rx="8" transform="rotate(-20 210 410)"/><circle cx="560" cy="245" r="24"/><circle cx="205" cy="295" r="18"/></g><path d="M565 380l65-70 25 95z" fill="#facc15"/></svg>
