<svg xmlns="http://www.w3.org/2000/svg" viewBox="0 0 800 600" role="img" aria-labelledby="t d"><title id="t">ชาไทยครีมสด</title><desc id="d">ภาพประกอบแก้วชาไทยเย็น</desc><defs><linearGradient id="b" x2="1" y2="1"><stop stop-color="#ffedd5"/><stop offset="1" stop-color="#fee2e2"/></linearGradient><linearGradient id="t2" y2="1"><stop stop-color="#fb923c"/><stop offset="1" stop-color="#c2410c"/></linearGradient></defs><rect width="800" height="600" fill="url(#b)"/><ellipse cx="395" cy="510" rx="150" ry="35" fill="#7c2d12" opacity=".14"/><path d="M270 130h260l-35 365c-4 38-39 55-95 55s-91-17-95-55z" fill="#fff" opacity=".75" stroke="#fff" stroke-width="14"/><path d="M294 252h212l-24 235c-3 28-33 39-82 39s-79-11-82-39z" fill="url(#t2)"/><path d="M290 235c25-75 190-73 220 0v45H290z" fill="#fff7ed"/><g fill="#fff" opacity=".5"><rect x="330" y="320" width="45" height="60" rx="10" transform="rotate(-12 330 320)"/><rect x="410" y="350" width="50" height="55" rx="10" transform="rotate(10 410 350)"/></g><path d="M460 65l25 205" stroke="#7c2d12" stroke-width="15" stroke-linecap="round"/><circle cx="565" cy="165" r="34" fill="#ea580c" opacity=".3"/></svg>
