<svg xmlns="http://www.w3.org/2000/svg" viewBox="0 0 800 600" role="img" aria-labelledby="t d"><title id="t">ต้มยำกุ้งน้ำข้น</title><desc id="d">ภาพประกอบชามต้มยำกุ้ง</desc><defs><linearGradient id="b" x2="1" y2="1"><stop stop-color="#ffedd5"/><stop offset="1" stop-color="#fecaca"/></linearGradient><linearGradient id="s" y2="1"><stop stop-color="#f97316"/><stop offset="1" stop-color="#c2410c"/></linearGradient></defs><rect width="800" height="600" fill="url(#b)"/><ellipse cx="400" cy="410" rx="250" ry="52" fill="#7c2d12" opacity=".18"/><path d="M145 255h510l-46 195c-12 52-72 85-209 85s-197-33-209-85z" fill="#fff"/><ellipse cx="400" cy="260" rx="255" ry="105" fill="#fff"/><ellipse cx="400" cy="267" rx="220" ry="78" fill="url(#s)"/><g fill="#fb923c" stroke="#fff7ed" stroke-width="13"><path d="M245 265c30-95 142-75 134 4-6 60-86 72-116 26"/><path d="M430 250c39-91 145-47 119 27-20 57-94 51-117 5"/></g><g fill="#166534"><ellipse cx="365" cy="218" rx="35" ry="13" transform="rotate(-22 365 218)"/><ellipse cx="502" cy="302" rx="34" ry="13" transform="rotate(32 502 302)"/><circle cx="330" cy="320" r="15"/></g><g stroke="#65a30d" stroke-width="12"><path d="M200 150l120 120"/><path d="M570 145l-80 125"/></g></svg>
