<svg xmlns="http://www.w3.org/2000/svg" viewBox="0 0 800 600" role="img" aria-labelledby="t d"><title id="t">ปีกไก่ทอดสมุนไพร</title><desc id="d">ภาพประกอบปีกไก่ทอดกรอบ</desc><defs><linearGradient id="b" x2="1" y2="1"><stop stop-color="#fef3c7"/><stop offset="1" stop-color="#fecaca"/></linearGradient></defs><rect width="800" height="600" fill="url(#b)"/><ellipse cx="400" cy="365" rx="265" ry="165" fill="#fff"/><g fill="#b45309" stroke="#78350f" stroke-width="12"><path d="M210 330c45-120 170-120 180-20 8 75-83 127-160 95-40-17-49-43-20-75z"/><path d="M405 270c70-100 190-47 165 55-19 78-123 107-181 53-34-32-19-72 16-108z"/><path d="M320 390c65-77 160-20 132 60-22 64-111 75-155 29-28-30-12-59 23-89z"/></g><g fill="#166534"><ellipse cx="218" cy="245" rx="45" ry="15" transform="rotate(-25 218 245)"/><ellipse cx="580" cy="415" rx="45" ry="15" transform="rotate(25 580 415)"/><circle cx="545" cy="215" r="18"/></g><g fill="#f59e0b"><circle cx="285" cy="312" r="8"/><circle cx="460" cy="330" r="9"/><circle cx="360" cy="430" r="7"/></g></svg>
